<?xml version="1.0" standalone="no"?>
<!DOCTYPE svg PUBLIC "-//W3C//DTD SVG 20010904//EN"
 "http://www.w3.org/TR/2001/REC-SVG-20010904/DTD/svg10.dtd">
<svg version="1.0" xmlns="http://www.w3.org/2000/svg"
 width="400.000000pt" height="400.000000pt" viewBox="0 0 400.000000 400.000000"
 preserveAspectRatio="xMidYMid meet">
<metadata>
Created by potrace 1.11, written by Peter Selinger 2001-2013
</metadata>
<g transform="translate(0.000000,400.000000) scale(0.100000,-0.100000)"
fill="#000000" stroke="none">
<path d="M421 3984 c-124 -33 -201 -116 -237 -254 -14 -52 -18 -114 -19 -300
0 -129 -5 -244 -10 -255 -21 -50 -55 -83 -98 -94 -48 -12 -57 -25 -57 -92 0
-74 9 -94 53 -115 46 -21 80 -65 100 -128 8 -28 12 -132 13 -336 1 -313 8
-369 56 -463 25 -50 88 -110 143 -136 43 -20 152 -39 193 -33 20 3 22 9 22 60
0 31 -5 73 -10 93 -10 35 -12 37 -68 43 -72 8 -113 33 -137 82 -17 35 -19 63
-18 299 2 373 -21 481 -122 574 l-48 45 23 15 c54 36 80 65 104 114 37 77 39
92 40 342 1 211 3 234 22 276 27 58 79 85 171 88 25 1 34 30 37 127 l3 64 -51
-1 c-28 0 -75 -7 -105 -15z"/>
<path d="M3426 3929 c5 -113 6 -115 64 -122 79 -10 120 -34 143 -86 19 -42 21
-66 22 -286 1 -228 2 -243 24 -300 23 -58 69 -113 120 -146 l24 -15 -50 -47
c-102 -95 -122 -188 -121 -551 1 -254 0 -274 -19 -318 -25 -55 -57 -75 -137
-84 -64 -8 -66 -10 -73 -116 -7 -87 -12 -82 76 -78 61 2 75 6 135 33 94 43
160 135 187 262 8 40 13 159 13 350 1 254 4 296 20 340 22 60 58 101 102 115
29 10 34 17 38 53 5 36 5 64 -3 124 0 7 -20 17 -43 24 -99 26 -121 86 -115
321 7 293 -18 405 -112 498 -65 64 -123 89 -229 97 l-69 5 3 -73z"/>
<path d="M2224 3958 c-93 -19 -135 -111 -127 -277 4 -96 25 -147 75 -183 28
-19 45 -23 108 -23 140 0 186 55 189 224 2 119 -17 189 -60 225 -44 37 -110
49 -185 34z m144 -82 c35 -35 49 -210 23 -278 -14 -37 -55 -61 -99 -60 -107 4
-125 27 -128 161 -2 127 18 183 70 195 37 8 119 -3 134 -18z"/>
<path d="M1540 3721 c0 -220 1 -239 18 -243 46 -12 48 -5 47 205 0 108 1 197
3 197 1 0 17 -33 36 -72 123 -262 156 -328 165 -329 6 -1 20 -1 31 -1 60 0 55
-20 55 240 l0 237 -32 3 -33 3 0 -208 0 -208 -43 95 c-24 52 -68 146 -98 207
l-54 113 -47 0 -48 0 0 -239z"/>
<path d="M801 3126 c-54 -14 -81 -47 -85 -107 -6 -88 25 -127 122 -154 100
-28 111 -34 118 -70 7 -41 -1 -71 -24 -80 -16 -6 -141 -8 -187 -2 -15 1 -21
-5 -23 -25 -4 -32 6 -36 104 -42 127 -8 181 17 193 91 8 46 -4 111 -26 135 -9
10 -55 29 -102 44 -47 14 -92 33 -98 42 -18 22 -16 87 2 102 11 9 41 11 105 8
92 -6 100 -2 100 37 0 24 -131 38 -199 21z"/>
<path d="M2013 3132 l-63 -3 0 -239 c0 -221 1 -240 18 -241 87 -7 180 -5 210
3 98 27 145 152 120 318 -21 133 -88 171 -285 162z m182 -92 c28 -28 45 -99
40 -170 -1 -25 -3 -56 -4 -68 0 -13 -16 -39 -35 -58 -33 -33 -37 -34 -108 -34
l-73 0 0 181 0 181 77 -4 c67 -3 81 -7 103 -28z"/>
<path d="M3090 3133 c-78 -11 -112 -49 -112 -124 1 -87 32 -118 154 -153 31
-9 64 -23 72 -32 20 -20 21 -88 1 -104 -16 -13 -123 -16 -182 -6 -18 4 -33 3
-34 -1 0 -5 -2 -18 -5 -30 -5 -29 24 -37 136 -37 133 0 171 34 165 144 -4 66
-29 91 -127 125 -103 36 -113 44 -116 89 -4 58 16 69 122 65 l91 -4 3 27 c3
24 -1 28 -30 32 -51 9 -111 12 -138 9z"/>
<path d="M1220 2890 l0 -240 131 0 130 0 -3 32 -3 32 -95 1 -95 0 -1 195 c-1
107 -2 201 -3 208 -1 6 -14 12 -31 12 l-30 0 0 -240z"/>
<path d="M1669 3118 c0 -7 -1 -114 -2 -238 l-1 -225 32 -3 32 -3 0 240 0 241
-30 0 c-17 0 -30 -5 -31 -12z"/>
<path d="M2510 2888 l0 -239 143 3 c152 3 143 0 138 51 -1 9 -30 12 -108 12
l-108 0 -3 73 c-2 53 0 72 10 73 7 1 49 2 93 3 l80 1 3 32 c3 31 2 31 -40 31
-24 0 -67 1 -95 1 l-53 1 0 64 c0 42 4 65 13 68 6 3 56 4 110 3 53 -1 98 2 98
7 1 4 2 15 2 23 0 8 -1 19 -2 25 0 5 -59 9 -141 8 l-140 0 0 -240z"/>
<path d="M1183 2300 c-91 -20 -124 -80 -127 -235 -4 -182 56 -256 203 -250 36
1 76 3 89 4 16 1 22 7 22 24 0 34 -13 47 -40 42 -48 -10 -120 -7 -149 5 -42
17 -56 59 -56 170 0 157 26 187 155 177 61 -5 71 -3 80 12 17 32 -9 49 -80 54
-36 2 -80 1 -97 -3z"/>
<path d="M1677 2300 c-50 -9 -87 -38 -112 -86 -16 -32 -19 -60 -20 -159 0
-109 2 -124 24 -162 28 -50 74 -75 143 -79 151 -8 210 68 203 265 -5 149 -50
214 -155 223 -25 3 -62 1 -83 -2z m111 -71 c42 -14 62 -68 62 -167 0 -143 -27
-182 -125 -182 -90 0 -116 36 -116 166 0 96 14 151 45 176 24 20 88 23 134 7z"/>
<path d="M2119 2278 c-1 -13 -2 -121 -3 -240 l-1 -218 33 0 32 0 1 208 c0 114
3 200 6 192 3 -8 37 -80 75 -160 38 -80 78 -166 89 -191 22 -49 43 -61 94 -51
l25 4 0 239 0 239 -29 0 c-19 0 -30 -6 -32 -17 -3 -10 -4 -103 -3 -207 0 -179
-1 -187 -15 -155 -34 75 -161 345 -169 359 -6 9 -27 16 -56 18 -42 3 -46 1
-47 -20z"/>
<path d="M2690 2235 c-1 -36 -1 -139 -1 -230 0 -91 0 -169 1 -175 0 -5 15 -10
33 -10 l32 0 -3 105 c-2 58 0 106 5 106 4 1 44 3 88 4 100 3 94 2 90 23 -2 9
-4 23 -4 29 -1 9 -19 13 -58 12 -32 -1 -73 -1 -91 0 l-33 1 3 68 3 67 100 0
100 0 3 32 3 31 -135 1 -136 2 0 -66z"/>
<path d="M1420 1612 c-13 -2 -45 -12 -71 -22 -41 -16 -52 -17 -90 -6 -24 7
-51 12 -59 11 -8 -1 -25 -3 -37 -3 -34 -3 -84 -52 -109 -109 l-24 -52 -74 2
c-87 2 -106 -9 -142 -89 -22 -49 -115 -405 -128 -488 -4 -21 -8 -41 -10 -45
-2 -3 -7 -26 -10 -51 -3 -25 -9 -56 -12 -70 -10 -45 -11 -223 -2 -269 43 -212
169 -357 354 -406 168 -44 314 10 456 170 112 126 252 260 318 305 92 63 147
116 161 157 25 77 -37 183 -116 197 -61 10 -93 26 -98 48 -3 11 12 93 35 181
45 185 48 224 18 273 -27 43 -86 84 -121 84 -32 0 -42 12 -57 67 -20 70 -109
126 -182 115z m86 -129 c10 -37 -2 -100 -61 -338 -57 -227 -63 -273 -43 -293
18 -18 22 -15 40 21 21 41 35 86 84 271 26 100 46 156 61 172 29 32 73 31 102
0 30 -31 28 -46 -39 -306 -63 -250 -60 -234 -67 -296 -7 -65 12 -76 47 -28 71
95 220 99 220 5 0 -31 -24 -56 -120 -123 -100 -70 -179 -144 -311 -293 -91
-102 -134 -137 -198 -160 -209 -74 -438 71 -476 300 -11 71 -6 245 10 321 3
12 7 39 10 60 21 136 115 495 137 522 17 19 55 33 73 26 9 -4 22 -19 30 -35
16 -31 12 -64 -37 -274 -26 -113 -28 -146 -11 -152 20 -7 39 46 108 300 79
290 84 301 125 315 29 10 34 9 57 -16 31 -34 30 -44 -37 -314 -58 -234 -63
-266 -37 -282 32 -20 45 14 132 337 83 307 86 312 155 295 30 -8 42 -17 46
-35z"/>
<path d="M2565 1614 c-5 -1 -27 -5 -48 -9 -53 -9 -104 -57 -120 -113 -13 -42
-18 -47 -58 -60 -89 -29 -143 -94 -141 -169 1 -17 17 -94 36 -170 19 -76 37
-153 39 -171 6 -37 -10 -59 -51 -68 -85 -18 -107 -30 -137 -72 -23 -34 -30
-55 -30 -91 0 -65 30 -101 170 -206 65 -48 150 -124 197 -176 198 -216 244
-255 343 -289 61 -21 166 -23 235 -5 169 45 308 204 344 393 23 120 10 282
-40 497 -7 29 -13 57 -18 80 -17 86 -83 320 -101 360 -35 78 -54 90 -142 90
l-76 0 -22 50 c-21 48 -72 103 -98 106 -7 1 -23 3 -37 4 -14 1 -44 -3 -68 -10
-40 -12 -49 -11 -105 9 -34 13 -66 22 -72 20z m49 -129 c20 -42 43 -118 96
-320 68 -261 93 -315 126 -271 7 10 11 28 8 39 -2 12 -7 36 -10 52 -3 17 -26
111 -51 210 -60 235 -62 257 -30 289 23 23 29 24 57 14 41 -14 46 -25 125
-315 65 -240 87 -303 104 -303 26 0 20 56 -28 249 -34 138 -35 164 -6 195 27
30 55 29 86 -3 20 -19 76 -198 104 -330 28 -130 34 -161 39 -191 3 -19 8 -46
10 -60 33 -189 18 -369 -39 -465 -94 -159 -299 -223 -461 -144 -25 12 -77 55
-117 97 -208 219 -257 266 -330 319 -127 91 -147 111 -147 144 0 89 128 92
210 5 40 -41 57 -45 62 -13 2 12 -27 144 -64 292 -37 149 -68 281 -68 294 0
32 37 71 67 71 60 0 69 -16 137 -265 62 -227 76 -256 106 -220 20 24 14 57
-60 350 -54 216 -60 273 -32 297 40 36 85 29 106 -17z"/>
</g>
</svg>
